<svg xmlns="http://www.w3.org/2000/svg" xmlns:xlink="http://www.w3.org/1999/xlink" width="183" height="43">
  <defs>
    <linearGradient id="b" x1="34.8504494%" x2="73.3658783%" y1="-23.5513653%" y2="286.838485%">
      <stop offset="0%" stop-color="#19637C"/>
      <stop offset="100%" stop-color="#7DC398"/>
    </linearGradient>
    <path id="a" d="M679.35 188.826c-.874671.054667-1.94066.614995-3.198 1.681s-2.610326 2.432658-4.059 4.1c-1.448674 1.667342-2.951992 3.512323-4.51 5.535-1.558008 2.022677-3.061326 4.031657-4.51 6.027-1.448674 1.995343-2.80166 3.867658-4.059 5.617-1.25734 1.749342-2.323329 3.143328-3.198 4.182-1.202673-.492002-2.241329-1.216329-3.116-2.173-.874671-.956671-1.503331-2.14566-1.886-3.567.273335-1.694675.655998-3.457658 1.148-5.289.492002-1.831342 1.134329-3.73099 1.927-5.699.792671-1.96801 1.776661-4.031656 2.952-6.191s2.610325-4.441655 4.305-6.847c-.820004.054667-1.94066.642328-3.362 1.763s-2.951992 2.569324-4.592 4.346c-1.640008 1.776676-3.334658 3.771989-5.084 5.986-1.749342 2.214011-3.389326 4.386989-4.92 6.519-2.022677 2.842681-3.70366 5.329989-5.043 7.462-1.33934 2.132011-2.309664 3.389331-2.911 3.772-1.42134-1.038672-2.405331-2.159327-2.952-3.362-.546669-1.202673-.956665-2.541993-1.23-4.018.054667-1.312007.259665-2.95199.615-4.92s.860997-3.990656 1.517-6.068c1.25734-3.990687 2.883657-7.95398 4.879-11.89 1.995343-3.93602 3.922324-7.543984 5.781-10.824 1.530674.328002 2.910994.84733 4.141 1.558s2.528326 1.749327 3.895 3.116c-.546669 1.694675-1.393994 3.484991-2.542 5.371-1.148006 1.886009-2.35066 3.867656-3.608 5.945-1.25734 2.077344-2.405328 4.209322-3.444 6.396-1.038672 2.186678-1.721998 4.400655-2.05 6.642 1.530674-2.186678 3.348323-4.701319 5.453-7.544s4.263989-5.521321 6.478-8.036c2.214011-2.514679 4.414322-4.646658 6.601-6.396 2.186678-1.749342 4.154658-2.624 5.904-2.624.656003 0 1.366663.109332 2.132.328.765337.218668 1.475997.491998 2.132.82.656003.328002 1.202664.642332 1.64.943.437336.300668.683333.532999.738.697-.273335 1.093339-.915662 2.582991-1.927 4.469-1.011338 1.886009-2.090994 3.867656-3.239 5.945s-2.213995 4.086324-3.198 6.027c-.984005 1.940676-1.557999 3.484994-1.722 4.633 2.67868-3.662685 5.193322-6.983652 7.544-9.963 2.350678-2.979348 4.564656-5.534989 6.642-7.667 2.077344-2.132011 4.004324-3.771994 5.781-4.92 1.776676-1.148006 3.457659-1.722 5.043-1.722 1.093339 0 2.118329.286997 3.075.861s1.626331 1.407661 2.009 2.501c-.492002 1.640008-1.298328 3.607989-2.419 5.904-1.120672 2.296011-2.254994 4.714987-3.403 7.257s-2.172995 5.042988-3.075 7.503c-.902005 2.460012-1.353 4.67399-1.353 6.642 0 1.148006.163998 1.899665.492 2.255.328002.355335.792664.533 1.394.533.656003 0 1.270997-.122999 1.845-.369s.997665-.369 1.271-.369c.328002.218668.519333.491998.574.82.054667.328002.082.628665.082.902-1.093339.874671-2.213994 1.598997-3.362 2.173s-2.43266.861-3.854.861c-1.312007 0-2.391662-.218664-3.239-.656-.847338-.437336-1.544331-1.038663-2.091-1.804-.546669-.765337-.929332-1.639995-1.148-2.624-.218668-.984005-.328-2.049994-.328-3.198 0-1.858676.245998-3.703658.738-5.535.492002-1.831342 1.079663-3.580658 1.763-5.248.683337-1.667342 1.407663-3.225326 2.173-4.674.765337-1.448674 1.421331-2.746994 1.968-3.895zm41.69-8.774c-.218668 3.38935-.819995 6.300321-1.804 8.733-.984005 2.432679-2.391658 4.564658-4.223 6.396-1.831342 1.831342-4.058987 3.484993-6.683 4.961-2.624013 1.476007-5.685316 2.897327-9.184 4.264 0 .328002-.013667.669665-.041 1.025-.027333.355335-.041.724331-.041 1.107 0 .71067.054666 1.448663.164 2.214.109334.765337.300665 1.475997.574 2.132.273335.656003.655998 1.188998 1.148 1.599.492002.410002 1.120663.615 1.886.615 1.476007 0 2.92466-.327997 4.346-.984 1.42134-.656003 2.774327-1.462329 4.059-2.419 1.284673-.956671 2.487328-1.995328 3.608-3.116 1.120672-1.120672 2.118329-2.145662 2.993-3.075.546669.492002 1.011331.956664 1.394 1.394-2.460012 3.280016-5.152319 5.999656-8.077 8.159-2.924681 2.159344-5.698987 3.539664-8.323 4.141-3.772019-.437336-6.710323-1.817655-8.815-4.141-2.104677-2.323345-3.157-5.124984-3.157-8.405 0-2.241345.31433-4.523655.943-6.847.62867-2.323345 1.503328-4.564656 2.624-6.724 1.120672-2.159344 2.432659-4.195657 3.936-6.109 1.503341-1.913343 3.115991-3.58066 4.838-5.002 1.722009-1.42134 3.498658-2.541996 5.33-3.362 1.831342-.820004 3.648991-1.23 5.453-1.23 2.514679.328002 4.865322 1.885986 7.052 4.674zm-5.658 2.706c-1.476007.218668-3.006659.819995-4.592 1.804-1.585341.984005-3.074993 2.295992-4.469 3.936-1.394007 1.640008-2.664994 3.553322-3.813 5.74s-2.049997 4.537321-2.706 7.052c4.373355-2.186678 8.008652-4.878984 10.906-8.077 2.897348-3.198016 4.455332-6.682981 4.674-10.455zm53.826 6.068c-.874671.054667-1.94066.614995-3.198 1.681s-2.610326 2.432658-4.059 4.1c-1.448674 1.667342-2.951992 3.512323-4.51 5.535-1.558008 2.022677-3.061326 4.031657-4.51 6.027-1.448674 1.995343-2.80166 3.867658-4.059 5.617-1.25734 1.749342-2.323329 3.143328-3.198 4.182-1.202673-.492002-2.241329-1.216329-3.116-2.173-.874671-.956671-1.503331-2.14566-1.886-3.567.273335-1.694675.655998-3.457658 1.148-5.289.492002-1.831342 1.134329-3.73099 1.927-5.699.792671-1.96801 1.776661-4.031656 2.952-6.191s2.610325-4.441655 4.305-6.847c-.820004.054667-1.94066.642328-3.362 1.763s-2.951992 2.569324-4.592 4.346c-1.640008 1.776676-3.334658 3.771989-5.084 5.986-1.749342 2.214011-3.389326 4.386989-4.92 6.519-2.022677 2.842681-3.70366 5.329989-5.043 7.462-1.33934 2.132011-2.309664 3.389331-2.911 3.772-1.42134-1.038672-2.405331-2.159327-2.952-3.362-.546669-1.202673-.956665-2.541993-1.23-4.018.054667-1.312007.259665-2.95199.615-4.92s.860997-3.990656 1.517-6.068c1.25734-3.990687 2.883657-7.95398 4.879-11.89 1.995343-3.93602 3.922324-7.543984 5.781-10.824 1.530674.328002 2.910994.84733 4.141 1.558s2.528327 1.749327 3.895 3.116c-.546669 1.694675-1.393994 3.484991-2.542 5.371-1.148006 1.886009-2.35066 3.867656-3.608 5.945-1.25734 2.077344-2.405328 4.209322-3.444 6.396-1.038672 2.186678-1.721998 4.400655-2.05 6.642 1.530674-2.186678 3.348323-4.701319 5.453-7.544s4.263989-5.521321 6.478-8.036c2.214011-2.514679 4.414322-4.646658 6.601-6.396 2.186678-1.749342 4.154658-2.624 5.904-2.624.656003 0 1.366663.109332 2.132.328.765337.218668 1.475997.491998 2.132.82.656003.328002 1.202664.642332 1.64.943.437336.300668.683333.532999.738.697-.273335 1.093339-.915662 2.582991-1.927 4.469-1.011338 1.886009-2.090994 3.867656-3.239 5.945s-2.213995 4.086324-3.198 6.027c-.984005 1.940676-1.557999 3.484994-1.722 4.633 2.67868-3.662685 5.193322-6.983652 7.544-9.963 2.350678-2.979348 4.564656-5.534989 6.642-7.667 2.077344-2.132011 4.004324-3.771994 5.781-4.92 1.776676-1.148006 3.457659-1.722 5.043-1.722 1.093339 0 2.118329.286997 3.075.861s1.626331 1.407661 2.009 2.501c-.492002 1.640008-1.298328 3.607989-2.419 5.904-1.120672 2.296011-2.254994 4.714987-3.403 7.257s-2.172995 5.042988-3.075 7.503c-.902005 2.460012-1.353 4.67399-1.353 6.642 0 1.148006.163998 1.899665.492 2.255.328002.355335.792664.533 1.394.533.656003 0 1.270997-.122999 1.845-.369s.997665-.369 1.271-.369c.328002.218668.519333.491998.574.82.054667.328002.082.628665.082.902-1.093339.874671-2.213994 1.598997-3.362 2.173s-2.43266.861-3.854.861c-1.312007 0-2.391662-.218664-3.239-.656-.847338-.437336-1.544331-1.038663-2.091-1.804-.546669-.765337-.929332-1.639995-1.148-2.624-.218668-.984005-.328-2.049994-.328-3.198 0-1.858676.245998-3.703658.738-5.535.492002-1.831342 1.079663-3.580658 1.763-5.248.683337-1.667342 1.407663-3.225326 2.173-4.674.765337-1.448674 1.421331-2.746994 1.968-3.895zm22.01 28.044c-3.116016-.328002-5.603324-1.694655-7.462-4.1-1.858676-2.405345-2.788-5.466648-2.788-9.184 0-2.186678.327997-4.455322.984-6.806.656003-2.350678 1.585327-4.632989 2.788-6.847 1.202673-2.214011 2.623992-4.30499 4.264-6.273 1.640008-1.96801 3.416657-3.66266 5.33-5.084 3.006682-2.241345 5.821987-3.362 8.446-3.362 1.749342.929338 3.471325 2.869985 5.166 5.822.273335 0 .519332-.013667.738-.041.218668-.027333.464665-.041.738-.041 2.897348 0 4.346 2.569308 4.346 7.708 0 3.444017-.560328 6.710318-1.681 9.799-1.120672 3.088682-2.678657 5.890321-4.674 8.405-1.995343 2.514679-4.37332 4.632991-7.134 6.355-2.76068 1.722009-5.780984 2.93833-9.061 3.649zm4.182-25.83c-.929338 1.25734-1.803996 2.623993-2.624 4.1-.820004 1.476007-1.530664 2.965659-2.132 4.469-.601336 1.503341-1.065998 2.951993-1.394 4.346-.328002 1.394007-.492 2.637661-.492 3.731 0 1.312007.218664 2.569327.656 3.772.437336 1.202673.929331 1.885999 1.476 2.05 2.460012-.546669 4.71499-1.571659 6.765-3.075 2.05001-1.503341 3.826659-3.375655 5.33-5.617 1.503341-2.241345 2.678662-4.783319 3.526-7.626.847338-2.842681 1.271-5.876651 1.271-9.102 0-1.42134-.081999-2.541996-.246-3.362s-.437331-1.530664-.82-2.132c-2.405345.71067-4.550991 1.858659-6.437 3.444-1.886009 1.585341-3.512326 3.252658-4.879 5.002z"/>
  </defs>
  <g fill="none" fill-rule="evenodd" transform="translate(-631 -175)">
    <use fill="#19637C" xlink:href="#a"/>
    <use fill="url(#b)" xlink:href="#a"/>
  </g>
</svg>
